<svg width="23" height="15" viewBox="0 0 23 15" fill="none" xmlns="http://www.w3.org/2000/svg">
<g id="logo">
<path id="Fill 20" fill-rule="evenodd" clip-rule="evenodd" d="M0.0203288 7.12472C0.0862067 3.26099 3.70975 -0.122612 7.65123 0.00628929C9.53981 -0.0797302 11.3151 0.725841 12.7616 1.85737C12.1442 2.54501 11.505 3.20739 10.822 3.82688C9.08309 2.6489 6.6102 2.31223 4.87134 3.67297C2.38386 5.35941 2.27059 9.34132 4.66329 11.1567C6.9901 13.2265 11.388 12.1989 12.0309 9.02966C10.5735 9.00822 9.11226 9.02966 7.65487 8.9832C7.65123 8.13092 7.64758 7.27864 7.65123 6.42661C10.0877 6.41947 12.5241 6.41564 14.9642 6.43376C15.1103 8.43901 14.84 10.5732 13.5834 12.231C11.6802 14.8558 7.85953 15.622 4.87863 14.4976C1.88704 13.3804 -0.231726 10.2829 0.0203288 7.12472Z" fill="#F76C41"/>
<path id="Fill 21" fill-rule="evenodd" clip-rule="evenodd" d="M19.01 4C19.6701 4 20.3299 4 20.9933 4C20.9967 4.66339 21 5.33011 21.0067 5.99327C21.6701 6.00016 22.3368 6.00016 23 6.00681C23 6.66664 23 7.33003 23 7.9901C22.3368 7.99675 21.6734 8.00008 21.0067 8.00673C21 8.67321 20.9967 9.33661 20.9933 10C20.3299 10 19.6701 10 19.0067 10C19 9.33661 19 8.67321 18.9933 8.01006C18.3299 8.00341 17.6634 7.99675 17 7.9901C17 7.33003 17 6.66997 17 6.00681C17.6634 6.00016 18.3266 5.99683 18.9933 5.99327C18.9967 5.32679 19.0033 4.66339 19.01 4Z" fill="#F76C41"/>
</g>
</svg>
