<svg width="93" height="93" viewBox="0 0 93 93" fill="none" xmlns="http://www.w3.org/2000/svg">
<g id="icon">
<path id="Shape" fill-rule="evenodd" clip-rule="evenodd" d="M92.5932 45.0683C92.5879 45.06 92.5835 45.0512 92.5781 45.0427L78.7732 23.2455C78.2646 22.4424 77.3862 21.9787 76.4715 21.9787H76.4633H16.5373H16.5291C15.5822 21.9787 14.7176 22.4711 14.2274 23.2455C14.0873 23.4665 0.48191 44.9479 0.407437 45.0683C0.394156 45.0898 0.381563 45.1117 0.368939 45.1337L0.363299 45.1435C-0.25428 46.2174 -0.0644652 47.5544 0.78743 48.4163L0.791232 48.4205C0.79329 48.4228 0.79534 48.4251 0.797601 48.4272L44.5736 92.2031C44.5805 92.2101 44.5883 92.2159 44.5952 92.2228C45.6474 93.2525 47.339 93.2659 48.4051 92.2228L48.4099 92.2183L48.415 92.2139C48.419 92.2104 48.4229 92.207 48.4267 92.2031L92.2026 48.4272C92.2061 48.4236 92.2092 48.4198 92.2128 48.4163C93.095 47.5243 93.2558 46.1411 92.5932 45.0683ZM71.5554 27.4281L62.6435 41.6869L51.9494 27.4281H71.5554ZM35.6016 43.7759H57.3988L46.5002 29.2445L35.6016 43.7759ZM41.051 27.4281L30.3569 41.6869L21.4451 27.4281H41.051ZM25.2364 43.7759L16.5139 29.8198L7.67488 43.7759H25.2364ZM9.30202 49.2253H28.2615L39.5617 79.4847L9.30202 49.2253ZM34.0782 49.2252L46.5 82.4885L58.9221 49.2252H34.0782ZM53.4389 79.4847L64.7391 49.2253H83.6982L53.4389 79.4847ZM76.4867 29.8198L67.764 43.7759H85.3255L76.4867 29.8198Z" fill="white"/>
<path id="Shape_2" d="M46.5002 0C44.9955 0 43.7756 1.2199 43.7756 2.72461V13.6232C43.7756 15.1279 44.9955 16.3478 46.5002 16.3478C48.0049 16.3478 49.2248 15.1279 49.2248 13.6232V2.72461C49.2248 1.2199 48.0049 0 46.5002 0Z" fill="white"/>
<path id="Shape_3" d="M35.4848 12.4636L27.7783 7.48177C26.5145 6.66475 24.8279 7.02712 24.0109 8.2908C23.1941 9.55465 23.5563 11.2412 24.82 12.0582L32.5266 17.0401C33.7908 17.8573 35.4773 17.4943 36.294 16.231C37.1108 14.9672 36.7485 13.2806 35.4848 12.4636Z" fill="white"/>
<path id="Shape_4" d="M68.9897 8.29081C68.1727 7.02714 66.4861 6.66494 65.2223 7.48178L57.5156 12.4636C56.252 13.2807 55.8898 14.9672 56.7066 16.231C57.5229 17.4938 59.2091 17.8575 60.474 17.0401L68.1807 12.0582C69.4443 11.2412 69.8065 9.55467 68.9897 8.29081Z" fill="white"/>
</g>
</svg>
